<svg width="24" height="24" viewBox="0 0 24 24" fill="none" xmlns="http://www.w3.org/2000/svg">
    <path fill-rule="evenodd" clip-rule="evenodd" d="M17.9985 17.5191C17.4694 18.2591 16.6875 18.8434 15.6716 19.2579C14.6683 19.6697 13.4661 19.8797 12.0958 19.8797C10.4518 19.8797 9.07331 19.5945 7.9965 19.0311C7.22737 18.6221 6.59381 18.0684 6.11269 17.3812C5.62594 16.6912 5.38031 16.0056 5.38031 15.342C5.38031 14.9302 5.54119 14.5714 5.85731 14.2778C6.17063 13.9856 6.57281 13.8396 7.05244 13.8396C7.44469 13.8396 7.78481 13.9551 8.05988 14.1846C8.32369 14.4058 8.54944 14.7326 8.7315 15.1513C8.93475 15.6103 9.15487 15.9971 9.38775 16.299C9.6135 16.5939 9.93675 16.8401 10.3487 17.0334C10.7636 17.2254 11.3237 17.3256 12.0109 17.3256C12.9577 17.3256 13.7338 17.1253 14.3166 16.7331C14.8881 16.3506 15.1646 15.8887 15.1646 15.324C15.1646 14.8802 15.0193 14.5298 14.7229 14.2543C14.4096 13.9678 13.9989 13.7452 13.5009 13.5894C12.9802 13.4308 12.2747 13.257 11.4013 13.0761C10.2118 12.8257 9.20288 12.5293 8.40131 12.1914C7.58006 11.8479 6.91819 11.3707 6.43425 10.7739C5.94319 10.1661 5.69344 9.40519 5.69344 8.51062C5.69344 7.65937 5.95444 6.89006 6.471 6.22781C6.98175 5.56988 7.72969 5.05519 8.69344 4.70606C9.64313 4.35975 10.7721 4.18444 12.0519 4.18444C13.0736 4.18444 13.9725 4.30125 14.7231 4.53225C15.4779 4.76325 16.113 5.07469 16.6125 5.46C17.1163 5.84944 17.4917 6.26269 17.7259 6.69394C17.9629 7.12931 18.0844 7.56187 18.0844 7.98075C18.0844 8.38425 17.9263 8.75138 17.6145 9.06994C17.3012 9.39262 16.9046 9.55538 16.4391 9.55538C16.0157 9.55538 15.6827 9.45244 15.4541 9.25219C15.2396 9.06431 15.0167 8.77219 14.7698 8.355C14.4848 7.82081 14.139 7.39931 13.7424 7.10156C13.3571 6.81225 12.7151 6.6675 11.8303 6.6675C11.0119 6.6675 10.3431 6.82894 9.84769 7.15012C9.37069 7.45762 9.138 7.81219 9.138 8.23237C9.138 8.48831 9.21281 8.70394 9.36806 8.8875C9.52894 9.08494 9.759 9.25481 10.0496 9.39937C10.3502 9.54825 10.6607 9.66788 10.971 9.75131C11.2884 9.83887 11.8219 9.96825 12.5543 10.1353C13.4812 10.3301 14.3323 10.5512 15.0844 10.7891C15.8477 11.0284 16.5054 11.3233 17.0443 11.6696C17.5918 12.0216 18.0249 12.4723 18.3341 13.0119C18.6431 13.5559 18.7999 14.2236 18.7999 15.0011C18.8001 15.9304 18.5291 16.7777 17.9985 17.5191ZM23.31 14.5477C23.4836 13.7661 23.5738 12.9564 23.5738 12.1245C23.5738 5.89256 18.4502 0.838875 12.1269 0.838875C11.4609 0.838875 10.8075 0.895875 10.1698 1.00444C9.14681 0.368625 7.93594 0 6.63919 0C2.97169 0 0 2.9295 0 6.54638C0 7.75388 0.333 8.88338 0.911625 9.85706C0.760687 10.5887 0.68025 11.3483 0.68025 12.1245C0.68025 18.3592 5.80538 23.4116 12.1271 23.4116C12.8439 23.4116 13.5439 23.3462 14.2239 23.2224C15.1594 23.7176 16.2262 24 17.3621 24C21.0283 24 24 21.069 24 17.4551C24 16.4104 23.7516 15.4241 23.31 14.5477Z" fill="#D5D5D5"/>
</svg>
