<svg width="24" height="24" viewBox="0 0 24 24" fill="none" xmlns="http://www.w3.org/2000/svg"> <path d="M12 5C8.13401 5 5 8.13401 5 12C5 15.866 8.13401 19 12 19C14.7924 19 17.2029 17.3649 18.3264 15H21H22.5859C21.2801 19.617 17.0351 23 12 23C5.92487 23 1 18.0751 1 12C1 5.92487 5.92487 1 12 1C17.0351 1 21.2801 4.38299 22.5859 9H21H18.3264C17.2029 6.63505 14.7924 5 12 5Z" fill="url(#paint0_linear_1_18)"/> <defs> <linearGradient id="paint0_linear_1_18" x1="16.6498" y1="1" x2="11.6142" y2="22.959" gradientUnits="userSpaceOnUse"> <stop stop-color="#9ECBFF"/> <stop offset="0.411458" stop-color="#6FA0FF"/> <stop offset="1" stop-color="#AF93FF"/> </linearGradient> </defs> </svg>